<?xml version="1.0" encoding="UTF-8"?>
<!-- Generator: Adobe Illustrator 22.1.0, SVG Export Plug-In . SVG Version: 6.00 Build 0)  -->
<svg version="1.1" id="Layer_1" xmlns="http://www.w3.org/2000/svg" xmlns:xlink="http://www.w3.org/1999/xlink" x="0px" y="0px" viewBox="0 0 451 88" style="enable-background:new 0 0 451 88;" xml:space="preserve">
<style type="text/css">
	.st0{fill:#FFFFFF;}
	.st1{opacity:0.6;fill:none;stroke:#FFFFFF;stroke-width:1.3051;stroke-miterlimit:10;enable-background:new    ;}
	.st2{opacity:0.3;fill:#FFFFFF;enable-background:new    ;}
	.st3{opacity:0.7;fill:#FFFFFF;enable-background:new    ;}
	.st4{opacity:0.5;fill:#FFFFFF;enable-background:new    ;}
	.st5{opacity:0.4;fill:#FFFFFF;enable-background:new    ;}
	.st6{opacity:0.8;fill:#FFFFFF;enable-background:new    ;}
</style>
<g>
	<g>
		<g>
			<path class="st0" d="M93.2,13.5h11.7c2,0,3.8,0.1,5.3,0.4c1.5,0.2,2.9,0.6,4,1.1s2.1,1,2.8,1.6c0.7,0.6,1.3,1.3,1.8,2.1     c0.4,0.8,0.8,1.6,1,2.4c0.2,0.9,0.3,1.8,0.3,2.7c0,0.8-0.1,1.6-0.3,2.3c-0.2,0.8-0.5,1.5-0.9,2.2s-1,1.4-1.7,2s-1.6,1.1-2.6,1.6     c-1,0.5-2.2,0.8-3.6,1.1s-3,0.4-4.8,0.4c-0.3,0-0.6,0-1,0s-0.8,0-1.1-0.1l-1.3-0.1v10.4h-9.6C93.2,43.6,93.2,13.5,93.2,13.5z      M102.8,28.7h2.2c1,0,1.9-0.1,2.6-0.4s1.3-0.6,1.7-1c0.4-0.4,0.7-0.9,0.9-1.5c0.2-0.6,0.3-1.2,0.3-1.9c0-1.1-0.1-2-0.4-2.7     s-0.7-1.3-1.1-1.7c-0.5-0.4-1.1-0.7-1.7-0.9c-0.7-0.2-1.4-0.3-2.2-0.3h-2.2v10.4H102.8z"/>
			<path class="st0" d="M132.3,44.3c-1.7,0-3.2-0.2-4.5-0.5s-2.5-0.7-3.4-1.3c-1-0.6-1.8-1.2-2.5-2s-1.3-1.6-1.7-2.5     c-0.4-0.9-0.7-1.8-0.9-2.8c-0.2-1-0.3-2-0.3-3c0-1,0.1-2,0.3-3c0.2-1,0.5-1.9,0.9-2.8s1-1.7,1.7-2.5s1.5-1.4,2.5-2s2.1-1,3.4-1.3     s2.8-0.5,4.5-0.5s3.2,0.2,4.5,0.5s2.5,0.8,3.4,1.3c1,0.6,1.8,1.2,2.5,2s1.2,1.6,1.7,2.5c0.4,0.9,0.7,1.9,0.9,2.8     c0.2,1,0.3,2,0.3,3c0,1-0.1,2-0.3,3s-0.5,1.9-0.9,2.8c-0.4,0.9-1,1.7-1.7,2.5s-1.5,1.4-2.5,2s-2.1,1-3.4,1.3     C135.5,44.2,134,44.3,132.3,44.3z M128.2,32.2c0,0.8,0.1,1.5,0.2,2.3c0.1,0.7,0.4,1.4,0.7,2s0.7,1,1.3,1.4     c0.5,0.3,1.2,0.5,1.9,0.5c0.8,0,1.4-0.2,1.9-0.5s0.9-0.8,1.3-1.4c0.3-0.6,0.5-1.2,0.7-2c0.1-0.7,0.2-1.5,0.2-2.3     c0-0.8-0.1-1.5-0.2-2.3c-0.1-0.7-0.4-1.4-0.7-2s-0.7-1-1.3-1.4c-0.5-0.4-1.2-0.5-1.9-0.5c-0.8,0-1.4,0.2-1.9,0.5     c-0.5,0.4-0.9,0.8-1.3,1.4c-0.3,0.6-0.6,1.2-0.7,2S128.2,31.5,128.2,32.2z"/>
			<path class="st0" d="M146.3,20.7h8.8c0,0.4,0,0.8-0.1,1.2c0,0.4,0,0.9,0,1.4s0,1,0,1.5s0,1,0,1.4c0.3-0.7,0.7-1.4,1.1-2.1     c0.5-0.7,1-1.4,1.6-2s1.3-1.1,2.1-1.4c0.8-0.4,1.7-0.6,2.7-0.6c0.2,0,0.4,0,0.6,0c0.2,0,0.4,0.1,0.6,0.1c0.2,0,0.4,0.1,0.6,0.2     c0.2,0.1,0.4,0.1,0.5,0.2l-0.7,8.8c-0.6-0.2-1.3-0.4-2-0.5s-1.3-0.2-1.9-0.2c-0.7,0-1.4,0.1-1.9,0.3c-0.5,0.2-1,0.4-1.4,0.7     c-0.4,0.3-0.7,0.6-0.9,0.9s-0.4,0.7-0.5,1v12.1h-9.2L146.3,20.7L146.3,20.7z"/>
			<path class="st0" d="M175.8,44.3c-1.3,0-2.6-0.2-3.8-0.5s-2.3-0.9-3.2-1.6c-0.9-0.8-1.7-1.8-2.2-3c-0.5-1.3-0.8-2.8-0.8-4.7V26     h-4.3v-1.4l10.1-10.9h3.4v7h6.8c-0.2,0.9-0.3,1.7-0.5,2.6c-0.1,0.9-0.2,1.8-0.2,2.7H175v8.4c0,0.5,0,1,0.1,1.5s0.2,0.9,0.5,1.3     c0.2,0.4,0.6,0.7,1,0.9c0.5,0.2,1.1,0.3,1.8,0.3c0.5,0,1,0,1.6-0.1s1.2-0.3,2-0.5l0.5,5.5c-0.9,0.3-1.9,0.6-3.1,0.8     C178.4,44.2,177.1,44.3,175.8,44.3z"/>
			<path class="st0" d="M188,44.3c-0.9,0-1.8-0.1-2.6-0.4c-0.8-0.3-1.6-0.6-2.2-1.2c-0.6-0.5-1.1-1.2-1.5-2s-0.6-1.8-0.6-2.9     c0-1.1,0.2-2,0.5-2.7c0.3-0.8,0.8-1.4,1.4-2c0.6-0.6,1.3-1,2-1.4c0.8-0.4,1.6-0.6,2.5-0.9c0.9-0.2,1.8-0.3,2.7-0.4     s1.8-0.1,2.7-0.1c0.6,0,1.2,0,1.7,0c0.6,0,1.1,0.1,1.6,0.1c0-0.9-0.2-1.6-0.5-2.2s-0.7-1.1-1.2-1.4s-1.1-0.6-1.8-0.7     s-1.4-0.2-2.2-0.2c-0.7,0-1.4,0-2.1,0.1c-0.7,0.1-1.4,0.2-2.1,0.3c-0.7,0.1-1.4,0.3-2,0.4c-0.6,0.2-1.2,0.3-1.7,0.4v-6     c0.7-0.2,1.4-0.3,2.3-0.5c0.8-0.1,1.6-0.3,2.5-0.4s1.8-0.2,2.7-0.3c0.9-0.1,1.8-0.1,2.7-0.1c1.1,0,2.2,0.1,3.2,0.2     c1.1,0.1,2.1,0.4,3,0.7c0.9,0.3,1.8,0.7,2.6,1.3c0.8,0.5,1.5,1.2,2.1,2s1,1.7,1.4,2.7c0.3,1.1,0.5,2.3,0.5,3.7v13.1h-8.8v-3.8     c-0.3,0.7-0.8,1.3-1.4,1.9c-0.6,0.5-1.3,1-2.1,1.4s-1.6,0.7-2.5,0.9C189.7,44.2,188.9,44.3,188,44.3z M191.6,39.3     c0.4,0,0.9-0.1,1.4-0.3s1-0.6,1.5-1c0.5-0.5,0.9-1,1.2-1.7s0.5-1.5,0.5-2.5h-0.7c-0.7,0-1.4,0.1-2.1,0.2c-0.7,0.1-1.4,0.4-2,0.6     c-0.6,0.3-1.1,0.6-1.5,1s-0.6,0.9-0.6,1.4c0,0.4,0.1,0.8,0.2,1.1c0.1,0.3,0.3,0.5,0.5,0.7s0.5,0.3,0.7,0.4     C191.1,39.3,191.4,39.3,191.6,39.3z"/>
			<path class="st0" d="M207.2,10.9h9.2v32.8h-9.2V10.9z"/>
			<path class="st0" d="M21.2,77.2H5.5l-3.6,9.6H0.6l12-32.2h1.5l12,32.2h-1.3L21.2,77.2z M5.9,76h14.8L14,57.9l-0.6-1.8h-0.1     l-0.6,1.8L5.9,76z"/>
			<path class="st0" d="M38.8,86.1c2,0,3.8-0.6,5.3-1.7s2.3-2.8,2.3-5h1v0.1c0.1,2.3-0.8,4.2-2.6,5.6s-3.8,2.1-6.2,2.1     c-3.1,0-5.4-1.1-7.2-3.3c-1.7-2.2-2.6-5.1-2.6-8.7v-0.9c0-3.6,0.9-6.4,2.6-8.6c1.7-2.2,4.1-3.3,7.1-3.3c2.5,0,4.6,0.7,6.3,2.2     s2.5,3.5,2.5,6.1v0.1h-1c0-2.3-0.8-4.1-2.3-5.4c-1.5-1.2-3.3-1.9-5.5-1.9c-2.8,0-4.9,1-6.4,3c-1.4,2-2.2,4.6-2.2,7.7v0.9     c0,3.2,0.7,5.8,2.2,7.8C33.8,85.1,35.9,86.1,38.8,86.1z"/>
			<path class="st0" d="M68.6,82.4c-0.8,1.4-2.1,2.6-3.7,3.5s-3.6,1.4-5.9,1.4c-2.2,0-4-0.6-5.2-1.8c-1.3-1.2-1.9-2.9-1.9-4.9     s0.9-3.7,2.8-5c1.9-1.4,4.3-2,7.1-2h6.8V70c0-2-0.6-3.5-1.9-4.6s-3.1-1.7-5.4-1.7c-2.2,0-3.9,0.5-5.2,1.6c-1.3,1-2,2.4-2,4h-1     v-0.1c-0.1-1.9,0.6-3.4,2.2-4.7c1.5-1.3,3.6-1.9,6.1-1.9c2.6,0,4.6,0.6,6.2,1.9c1.5,1.3,2.3,3.2,2.3,5.6v12c0,0.8,0,1.7,0.1,2.5     s0.3,1.6,0.5,2.4h-1.3c-0.2-1-0.3-1.8-0.4-2.4c-0.1-0.5-0.1-1.1-0.1-1.7L68.6,82.4L68.6,82.4z M59,86.1c2.4,0,4.4-0.5,6-1.6     c1.6-1,2.8-2.5,3.6-4.5v-5.4h-6.8c-2.5,0-4.6,0.6-6.3,1.7C53.9,77.6,53,79,53,80.6s0.5,2.9,1.6,3.9C55.7,85.6,57.2,86.1,59,86.1z     "/>
			<path class="st0" d="M76.4,74.9c0-3.8,0.8-6.8,2.4-9c1.6-2.2,3.8-3.3,6.6-3.3c1.9,0,3.5,0.4,4.8,1.3c1.4,0.8,2.4,2,3.3,3.4V52.4     h1.2v34.5h-1.1v-3.7c-0.8,1.3-1.9,2.3-3.3,3c-1.4,0.8-3,1.1-4.9,1.1c-2.8,0-5-1.1-6.6-3.2c-1.6-2.2-2.4-5.1-2.4-8.7V74.9z      M77.6,75.3c0,3.3,0.6,5.9,2,7.9c1.3,1.9,3.2,2.9,5.8,2.9c2.1,0,3.8-0.5,5.2-1.4c1.4-0.9,2.4-2.2,3-3.8V69.7     c-0.6-1.7-1.5-3.1-2.8-4.3c-1.3-1.2-3.1-1.7-5.3-1.7c-2.5,0-4.5,1-5.8,3.1s-2,4.8-2,8.1L77.6,75.3L77.6,75.3z"/>
			<path class="st0" d="M110.4,87.3c-2.7,0-5.1-1.1-7.1-3.3c-2-2.2-3-4.9-3-8.2v-1.4c0-3.4,1-6.3,2.9-8.5c1.9-2.2,4.3-3.4,7.1-3.4     c2.7,0,4.9,0.9,6.6,2.7c1.7,1.8,2.6,4.1,2.6,7.1v1.8h-17.9v0.3v1.4c0,2.9,0.8,5.3,2.5,7.3s3.8,3,6.3,3c1.8,0,3.3-0.2,4.5-0.7     s2.2-1.2,3.1-2.2l0.6,0.9c-0.9,1-2.1,1.8-3.4,2.4C113.8,87,112.2,87.3,110.4,87.3z M110.3,63.7c-2.4,0-4.3,0.9-5.9,2.6     c-1.6,1.7-2.5,3.9-2.7,6.5l0.1,0.1h16.5v-0.7c0-2.4-0.7-4.5-2.2-6.1C114.6,64.5,112.7,63.7,110.3,63.7z M114.6,53.7h1.7v0.1     l-5.1,5.8h-1.5v-0.1L114.6,53.7z"/>
			<path class="st0" d="M125.8,62.9l0.2,4.9c0.7-1.7,1.8-3,3.1-4c1.4-0.9,3-1.4,4.9-1.4c2.1,0,3.7,0.5,5,1.6s2.2,2.7,2.7,4.9     c0.6-2,1.7-3.6,3.1-4.8c1.4-1.1,3.2-1.7,5.4-1.7c2.6,0,4.6,0.9,6,2.6c1.4,1.7,2.1,4.4,2.1,8.1v13.6h-1.2V73.1     c0-3.5-0.6-5.9-1.9-7.3c-1.2-1.4-2.9-2.1-4.9-2.1c-2.5,0-4.4,0.8-5.7,2.3s-2.1,3.5-2.4,5.9c0,0.3,0,0.5,0,0.8c0,0.2,0,0.4,0,0.6     v13.6H141V73.2c0-3.5-0.6-5.9-1.9-7.3c-1.2-1.4-2.9-2.1-5-2.1c-2.5,0-4.4,0.7-5.6,2.2c-1.3,1.5-2.1,3.3-2.5,5.6v15.3h-1.2v-24     H125.8z"/>
			<path class="st0" d="M167.1,55.4h-1.2v-3h1.2V55.4z M167.1,86.8h-1.2V62.9h1.2V86.8z"/>
			<path class="st0" d="M183,86.1c2,0,3.8-0.6,5.3-1.7s2.3-2.8,2.3-5h1v0.1c0.1,2.3-0.8,4.2-2.6,5.6s-3.8,2.1-6.2,2.1     c-3,0-5.4-1.1-7.2-3.3c-1.7-2.2-2.6-5.1-2.6-8.7v-0.9c0-3.6,0.9-6.4,2.6-8.6c1.7-2.2,4.1-3.3,7.1-3.3c2.5,0,4.6,0.7,6.3,2.2     s2.5,3.5,2.5,6.1v0.1h-1c0-2.3-0.7-4.1-2.3-5.4c-1.5-1.2-3.3-1.9-5.5-1.9c-2.8,0-4.9,1-6.4,3c-1.4,2-2.2,4.6-2.2,7.7v0.9     c0,3.2,0.7,5.8,2.2,7.8C178.1,85.1,180.2,86.1,183,86.1z"/>
			<path class="st0" d="M196,74.4c0-3.5,1-6.4,2.9-8.6c1.9-2.2,4.5-3.3,7.5-3.3c3.1,0,5.6,1.1,7.6,3.3c1.9,2.2,2.9,5.1,2.9,8.6v0.9     c0,3.5-1,6.4-2.9,8.6s-4.4,3.3-7.5,3.3s-5.6-1.1-7.6-3.3c-1.9-2.2-2.9-5.1-2.9-8.6V74.4z M197.2,75.3c0,3,0.8,5.5,2.5,7.6     s3.9,3.1,6.8,3.1c2.8,0,5-1,6.7-3.1s2.5-4.6,2.5-7.6v-0.9c0-2.9-0.8-5.5-2.5-7.6s-3.9-3.2-6.7-3.2s-5.1,1.1-6.7,3.2     c-1.7,2.1-2.5,4.6-2.5,7.6v0.9H197.2z"/>
		</g>
		<line class="st1" x1="226.8" y1="0.8" x2="226.8" y2="86.4"/>
	</g>
	<g>
		<rect x="390.9" y="11.6" class="st2" width="13.3" height="64.9"/>
		<rect x="391.1" y="25" class="st3" width="59.3" height="30.4"/>
		<rect x="437.3" y="11.6" class="st4" width="13.3" height="64.9"/>
	</g>
	<g>
		<path class="st0" d="M262,43.7c0-8.4,6.5-15.2,14.8-15.7l-10.5-17.3c-0.1-0.1-0.2-0.2-0.2-0.2c-15,3.7-26.1,17.3-26.1,33.4    c0,16.4,11.5,30.2,26.9,33.6l10.7-18C268.9,59.4,262,52.4,262,43.7z"/>
		<path class="st3" d="M277.7,28c6,0,11.1,3.3,13.8,8.2l9.3-15.5c-6.3-7-15.4-11.5-25.6-11.5c-3.2,0-6.3,0.5-9.2,1.3l0.1,0.2    c0.9,1.4,5.8,9.4,10.5,17.3C277.1,28,277.4,28,277.7,28z"/>
		<path class="st5" d="M277.7,59.5h-0.1l-11,18.5c2.5,0.6,5,0.9,7.6,0.9c10.7,0,20.3-4.9,26.6-12.6l-9.5-14.6    C288.6,56.3,283.5,59.5,277.7,59.5z"/>
	</g>
	<g>
		<path class="st6" d="M337.4,43.7c0-8.2,6.3-15,14.3-15.7l-10.6-17.3C326.1,14.4,315,28,315,44.1c0,16.4,11.5,30.2,26.9,33.6    l10.8-18.3C344.2,59.3,337.4,52.3,337.4,43.7z"/>
		<path class="st0" d="M351.8,28c0.4,0,0.9-0.1,1.3-0.1c5.9,0,11,3.2,13.7,8l9.1-15.1c-6.3-7-15.4-11.5-25.6-11.5    c-3.2,0-6.3,0.5-9.2,1.3l0,0c0,0,0,0,0.1,0C341.2,10.7,346.6,19.4,351.8,28z"/>
		<path class="st4" d="M366.6,51.8c-2.8,4.6-7.8,7.7-13.5,7.7c-0.1,0-0.2,0-0.3,0L342,77.8c2.4,0.6,5,0.9,7.6,0.9    c10.7,0,20.3-4.9,26.6-12.6L366.6,51.8z"/>
	</g>
</g>
</svg>